<svg xmlns="http://www.w3.org/2000/svg" width="1170" height="2532" viewBox="0 0 1170 2532">
<defs>
  <style>
    .bg { fill: #0b0b0d; }
    .panel { fill: #111114; stroke: #2a2a33; stroke-width: 2; }
    .rule { stroke: #2a2a33; stroke-width: 2; }
    .title { fill: #f2f2f2; font: 600 44px -apple-system, BlinkMacSystemFont, "SF Pro Display", "Helvetica Neue", Arial, sans-serif; letter-spacing: 0.4px; }
    .h2 { fill: #f2f2f2; font: 600 32px -apple-system, BlinkMacSystemFont, "SF Pro Display", "Helvetica Neue", Arial, sans-serif; }
    .body { fill: #f2f2f2; font: 400 28px -apple-system, BlinkMacSystemFont, "SF Pro Text", "Helvetica Neue", Arial, sans-serif; }
    .muted { fill: #b6b6bf; font: 400 24px -apple-system, BlinkMacSystemFont, "SF Pro Text", "Helvetica Neue", Arial, sans-serif; }
    .faint { fill: #7a7a86; font: 400 22px -apple-system, BlinkMacSystemFont, "SF Pro Text", "Helvetica Neue", Arial, sans-serif; }
    .pill { fill: transparent; stroke: #2a2a33; stroke-width: 2; rx: 999; }
    .pillText { fill: #f2f2f2; font: 500 22px -apple-system, BlinkMacSystemFont, "SF Pro Text", "Helvetica Neue", Arial, sans-serif; letter-spacing: 0.3px; }
    .cta { fill: #f2f2f2; font: 600 26px -apple-system, BlinkMacSystemFont, "SF Pro Text", "Helvetica Neue", Arial, sans-serif; }
    .ctaBox { fill: #f2f2f2; rx: 20; }
    .ctaBoxText { fill: #0b0b0d; font: 700 26px -apple-system, BlinkMacSystemFont, "SF Pro Text", "Helvetica Neue", Arial, sans-serif; }
  </style>
</defs>
<rect x="0" y="0" width="1170" height="2532" class="bg"/>
<rect x="60" y="60" width="1050" height="2412" rx="72" class="panel"/>
<rect x="60" y="60" width="1050" height="2412" rx="72" fill="none" stroke="#2a2a33" stroke-width="2"/>

<text x="120" y="170" class="title">sample editing</text>
<text x="1040" y="170" text-anchor="end" class="muted">•••</text>
<line x1="120" y1="220" x2="1050" y2="220" class="rule"/>
<text x="120" y="280" class="muted">trim (0.1s - 10s) • realtime preview</text><rect x="120" y="330" width="930" height="260" rx="28" fill="#0f0f13" stroke="#2a2a33" stroke-width="2"/><text x="146" y="390" class="faint">waveform</text><rect x="160" y="520" width="10" height="40" fill="#2a2a33" rx="4"/><rect x="188" y="507" width="10" height="53" fill="#2a2a33" rx="4"/><rect x="216" y="494" width="10" height="66" fill="#2a2a33" rx="4"/><rect x="244" y="481" width="10" height="79" fill="#2a2a33" rx="4"/><rect x="272" y="468" width="10" height="92" fill="#2a2a33" rx="4"/><rect x="300" y="455" width="10" height="105" fill="#2a2a33" rx="4"/><rect x="328" y="442" width="10" height="118" fill="#2a2a33" rx="4"/><rect x="356" y="429" width="10" height="131" fill="#2a2a33" rx="4"/><rect x="384" y="416" width="10" height="144" fill="#2a2a33" rx="4"/><rect x="412" y="403" width="10" height="157" fill="#2a2a33" rx="4"/><rect x="440" y="390" width="10" height="170" fill="#2a2a33" rx="4"/><rect x="468" y="377" width="10" height="183" fill="#2a2a33" rx="4"/><rect x="496" y="364" width="10" height="196" fill="#2a2a33" rx="4"/><rect x="524" y="511" width="10" height="49" fill="#2a2a33" rx="4"/><rect x="552" y="498" width="10" height="62" fill="#2a2a33" rx="4"/><rect x="580" y="485" width="10" height="75" fill="#2a2a33" rx="4"/><rect x="608" y="472" width="10" height="88" fill="#2a2a33" rx="4"/><rect x="636" y="459" width="10" height="101" fill="#2a2a33" rx="4"/><rect x="664" y="446" width="10" height="114" fill="#2a2a33" rx="4"/><rect x="692" y="433" width="10" height="127" fill="#2a2a33" rx="4"/><rect x="720" y="420" width="10" height="140" fill="#2a2a33" rx="4"/><rect x="748" y="407" width="10" height="153" fill="#2a2a33" rx="4"/><rect x="776" y="394" width="10" height="166" fill="#2a2a33" rx="4"/><rect x="804" y="381" width="10" height="179" fill="#2a2a33" rx="4"/><rect x="832" y="368" width="10" height="192" fill="#2a2a33" rx="4"/><rect x="860" y="515" width="10" height="45" fill="#2a2a33" rx="4"/><rect x="888" y="502" width="10" height="58" fill="#2a2a33" rx="4"/><rect x="916" y="489" width="10" height="71" fill="#2a2a33" rx="4"/><rect x="944" y="476" width="10" height="84" fill="#2a2a33" rx="4"/><rect x="972" y="463" width="10" height="97" fill="#2a2a33" rx="4"/><rect x="170" y="350" width="6" height="220" fill="#f2f2f2" rx="3"/><rect x="940" y="350" width="6" height="220" fill="#f2f2f2" rx="3"/><text x="120" y="660" class="h2">sound changer</text>
<rect x="120" y="710" width="930" height="150" rx="28" fill="#0f0f13" stroke="#2a2a33" stroke-width="2"/>
<text x="146" y="766" class="h2">tone</text>
<text x="146" y="802" class="muted">warm  •  neutral  •  bright</text>

<rect x="120" y="880" width="930" height="150" rx="28" fill="#0f0f13" stroke="#2a2a33" stroke-width="2"/>
<text x="146" y="936" class="h2">shape</text>
<text x="146" y="972" class="muted">punch  •  soft  •  clipped</text>

<rect x="120" y="1050" width="930" height="150" rx="28" fill="#0f0f13" stroke="#2a2a33" stroke-width="2"/>
<text x="146" y="1106" class="h2">space</text>
<text x="146" y="1142" class="muted">dry  •  room  •  haze</text>
<text x="120" y="1250" class="muted">preview</text><rect x="120" y="1290" width="930" height="110" rx="28" fill="#0f0f13" stroke="#2a2a33" stroke-width="2"/><text x="160" y="1360" class="body">▶︎</text><text x="220" y="1363" class="muted">table tap — edited</text>
<rect x="120" y="2260" width="930" height="88" class="ctaBox"/>
<text x="585.0" y="2317" text-anchor="middle" class="ctaBoxText">save to shared library</text>
</svg>