<svg xmlns="http://www.w3.org/2000/svg" width="1170" height="2532" viewBox="0 0 1170 2532">
<defs>
  <style>
    .bg { fill: #0b0b0d; }
    .panel { fill: #111114; stroke: #2a2a33; stroke-width: 2; }
    .rule { stroke: #2a2a33; stroke-width: 2; }
    .title { fill: #f2f2f2; font: 600 44px -apple-system, BlinkMacSystemFont, "SF Pro Display", "Helvetica Neue", Arial, sans-serif; letter-spacing: 0.4px; }
    .h2 { fill: #f2f2f2; font: 600 32px -apple-system, BlinkMacSystemFont, "SF Pro Display", "Helvetica Neue", Arial, sans-serif; }
    .body { fill: #f2f2f2; font: 400 28px -apple-system, BlinkMacSystemFont, "SF Pro Text", "Helvetica Neue", Arial, sans-serif; }
    .muted { fill: #b6b6bf; font: 400 24px -apple-system, BlinkMacSystemFont, "SF Pro Text", "Helvetica Neue", Arial, sans-serif; }
    .faint { fill: #7a7a86; font: 400 22px -apple-system, BlinkMacSystemFont, "SF Pro Text", "Helvetica Neue", Arial, sans-serif; }
    .pill { fill: transparent; stroke: #2a2a33; stroke-width: 2; rx: 999; }
    .pillText { fill: #f2f2f2; font: 500 22px -apple-system, BlinkMacSystemFont, "SF Pro Text", "Helvetica Neue", Arial, sans-serif; letter-spacing: 0.3px; }
    .cta { fill: #f2f2f2; font: 600 26px -apple-system, BlinkMacSystemFont, "SF Pro Text", "Helvetica Neue", Arial, sans-serif; }
    .ctaBox { fill: #f2f2f2; rx: 20; }
    .ctaBoxText { fill: #0b0b0d; font: 700 26px -apple-system, BlinkMacSystemFont, "SF Pro Text", "Helvetica Neue", Arial, sans-serif; }
  </style>
</defs>
<rect x="0" y="0" width="1170" height="2532" class="bg"/>
<rect x="60" y="60" width="1050" height="2412" rx="72" class="panel"/>
<rect x="60" y="60" width="1050" height="2412" rx="72" fill="none" stroke="#2a2a33" stroke-width="2"/>

<text x="120" y="170" class="title">voting</text>
<text x="1040" y="170" text-anchor="end" class="muted">•••</text>
<line x1="120" y1="220" x2="1050" y2="220" class="rule"/>
<text x="120" y="280" class="muted">vote on creativity • keep it simple</text>
<rect x="120" y="330" width="930" height="240" rx="28" fill="#0f0f13" stroke="#2a2a33" stroke-width="2"/>
<text x="146" y="386" class="h2">weekly remakes</text>
<text x="146" y="422" class="muted">most creative uses of real sounds</text>
<text x="146" y="475" class="faint">this week: “ye” bar 3</text><rect x="120" y="610" width="930" height="540" rx="28" fill="#0f0f13" stroke="#2a2a33" stroke-width="2"/><text x="146" y="680" class="h2">kitchen drums</text><text x="146" y="724" class="muted">used: basketball dribble as kick • key clack as hat</text><rect x="146" y="770" width="878" height="160" rx="24" fill="#0b0b0d" stroke="#2a2a33" stroke-width="2"/><text x="176" y="860" class="muted">▶︎ listen</text><text x="146" y="980" class="faint">tap to see provenance</text><text x="146" y="1060" class="muted">creativity</text>
<rect x="146" y="1086" width="150" height="54" rx="999" class="pill"/>
<text x="164" y="1122" class="pillText">1</text>

<rect x="316" y="1086" width="150" height="54" rx="999" class="pill"/>
<text x="334" y="1122" class="pillText">2</text>

<rect x="486" y="1086" width="150" height="54" rx="999" class="pill"/>
<text x="504" y="1122" class="pillText">3</text>

<rect x="656" y="1086" width="150" height="54" rx="999" class="pill"/>
<text x="674" y="1122" class="pillText">4</text>

<rect x="826" y="1086" width="198" height="54" rx="999" class="pill"/>
<text x="844" y="1122" class="pillText">5</text>

<rect x="120" y="2260" width="930" height="88" class="ctaBox"/>
<text x="585.0" y="2317" text-anchor="middle" class="ctaBoxText">submit vote</text>
</svg>